# xmcd CD database file
#
# Track frame offsets:
#	150
#	15135
#	29345
#	42975
#	55672
#	70112
#	86812
#	104460
#	119925
#	133852
#	148425
#	162552
#	174880
#	189925
#	205350
#	220482
#
# Disc length: 3116 seconds
#
# Revision: 0
# Processed by: cddbd v1.5.1PL0 Copyright (c) Steve Scherf et al.
# Submitted via: CDex 1.51
#
DISCID=f10c2a10
DTITLE=GLENN MILLER - THE WORLD OF GLENN MILLER
DYEAR=1900
DGENRE=Jazz
TTITLE0=MOONLIGHT SERENADE
TTITLE1=A STRING OF PEARLS
TTITLE2=TUXEDO JUNCTION
TTITLE3=PERFIDIA
TTITLE4=BLUE MOON
TTITLE5=GEORGIA ON MY MIND
TTITLE6=PHAPSODY IN BLUE
TTITLE7=IN THE MOOD
TTITLE8=CHATTANOOGA CHOO CHOO
TTITLE9=PENSYLVANIA 6-5000
TTITLE10=CALL ME IRRESPONSIBLE
TTITLE11=MORE
TTITLE12=BLUE VELVET
TTITLE13=SERENADE IN BLUE
TTITLE14=MOONLIGHT COCKTAIL
TTITLE15=AT LAST
EXTD=
EXTT0=
EXTT1=
EXTT2=
EXTT3=
EXTT4=
EXTT5=
EXTT6=
EXTT7=
EXTT8=
EXTT9=
EXTT10=
EXTT11=
EXTT12=
EXTT13=
EXTT14=
EXTT15=
PLAYORDER=
